<svg id="Ebene_1" data-name="Ebene 1" xmlns="http://www.w3.org/2000/svg" viewBox="0 0 1545.66931 854.1952"><defs><style>.cls-1{fill:#d21b1b;}.cls-2{font-size:120px;font-family:ComicSansMS, Comic Sans MS;}</style></defs><title>supercoolescooleslogosvg</title><path d="M1.0765,236.78434c24.181,54.25954,51.88155,111.23889,109.5999,136.0198,58.506,25.11908,123.11481,15.72263,184.82961,20.55533,32.06111,2.51061,63.66775,9.66044,91.29011,26.70692,24.88184,15.35523,45.46235,36.57692,64.9372,58.137,19.93744,22.07218,38.96173,45.08829,60.90841,65.24263a358.835,358.835,0,0,0,73.021,51.8619c52.67707,28.24192,112.42448,43.50158,172.26383,42.65849,7.45364-.105,14.89724-.48361,22.3271-1.08108,7.64524-.61479,7.7112-12.62009,0-12a341.08418,341.08418,0,0,1-171.99012-31.61588,348.52764,348.52764,0,0,1-74.90107-47.59052c-22.58208-18.86661-42.011-40.897-61.4675-62.87322-19.09607-21.56914-38.47027-43.13007-61.36127-60.78539a189.93791,189.93791,0,0,0-82.94787-36.62014c-61.57326-11.18531-125.38188.93869-186.32657-14.81324-28.93667-7.47905-54.64854-21.82058-74.76-44.10016-19.73638-21.86405-33.417-48.57707-45.72161-75.11095-3.178-6.85317-6.26453-13.74823-9.33948-20.64811-3.13762-7.04048-13.48123-.94338-10.36165,6.05663Z" transform="translate(-0.49697 34.33094)"/><path d="M73.21956,123.47319a175.72933,175.72933,0,0,1,102.637-8.37429c35.19942,7.75054,65.08043,26.016,90.83683,50.84536,25.57978,24.65908,47.58939,53.04019,75.79955,74.90838,28.97008,22.45726,63.498,34.58695,99.32516,40.82331,68.768,11.9703,142.805,4.18152,207.59544,34.31052a157.16817,157.16817,0,0,1,41.78836,27.72c13.61235,12.83113,24.07821,28.28851,34.018,44.02245,9.77265,15.4693,19.29246,31.03715,30.622,45.44173A276.66253,276.66253,0,0,0,790.669,469.91948c50.06443,43.99445,115.4373,70.619,182.30376,71.406,8.0203.09441,16.03416-.22067,24.02723-.87664,7.64265-.62721,7.70969-12.63272,0-12-66.4864,5.45639-133.76554-16.12435-186.09353-57.2404-27.65373-21.72857-49.38283-48.2046-68.00828-77.86836-10.12734-16.12927-20.07227-32.479-32.54392-46.94776a157.63353,157.63353,0,0,0-39.40674-32.65569C609.3153,277.415,535.36233,281.525,466.81093,273.28763c-36.50443-4.38649-73.35435-12.91029-104.61242-33.06291-30.00424-19.34426-52.61237-47.749-77.28378-73.05757-24.8943-25.53724-52.60583-46.87028-86.75554-58.34467a189.466,189.466,0,0,0-103.17565-4.84522,177.22489,177.22489,0,0,0-24.95406,7.92458c-7.08634,2.82668-3.99516,14.43748,3.19008,11.57135Z" transform="translate(-0.49697 34.33094)"/><path d="M1540.37041-22.33094c7.72143,0,7.73422-12,0-12-7.72143,0-7.73422,12,0,12Z" transform="translate(-0.49697 34.33094)"/><path class="cls-1" d="M397.82768,365.54625l-8.64373-19.92839-6.77586,8.814c26.89806,9.26253,56.44985,3.38382,78.66373-13.99551,2.7347-2.13953,1.82877-6.223,0-8.48528-5.43294-6.72078-14.81936-7.97806-22.57347-4.94516-8.05805,3.15179-13.26506,10.53854-14.5128,18.98877-2.77933,18.8229,11.261,35.21047,29.75487,37.1052,19.83274,2.0319,39.60125-11.29379,47.83-28.95469,7.95547-17.0743,5.23323-39.21643-10.14585-51.34245-15.55241-12.2627-36.40622-7.35379-51.4416,3.16181-14.25054,9.96669-29.20339,27.13393-26.95949,45.872,2.51245,20.98065,27.664,25.09975,41.87644,12.62974,14.26762-12.51841,11.52283-37.323-6.4308-44.98659-9.92745-4.23759-20.95716-.22236-27.19537,8.28192a22.98574,22.98574,0,0,0,.20212,27.66285c16.11668,21.5336,47.14256,8.72967,65.82246-1.84275,3.76444-2.13059,4.04486-8.30618,0-10.36165-10.65973-5.41693-24.04083-3.18577-31.70156,6.30251-7.38008,9.14067-7.60243,23.1844-.704,32.6759,14.72093,20.25432,49.18034,10.34423,64.82676-3.65391,8.54943-7.64878,12.714-19.509,8.00142-30.41411-4.03161-9.32939-13.723-14.88269-23.379-16.74845-23.9776-4.63305-48.963,9.926-63.38166,28.31039-7.65333,9.75834-16.43986,23.9363-9.91746,36.4235,5.165,9.88849,17.57681,13.02887,27.923,12.681,13.682-.46008,27.40468-4.59971,39.57688-10.72329a102.10989,102.10989,0,0,0,17.33-11.16471c5.05478-3.9886,10.125-8.55669,10.05641-15.5173-.13017-13.20373-16.23726-18.34318-27.0218-18.30314a46.59137,46.59137,0,0,0-31.07,12.50657c-9.48174,8.77721-15.39175,22.32737-13.021,35.2787,2.19543,11.99379,11.94754,21.17687,23.01161,25.362,12.26516,4.63947,25.68933,1.81125,37.086-3.87253,11.284-5.62759,24.92654-15.00072,28.96452-27.58178,8.06014-25.11284-34.48446-34.53031-50.93255-25.95679a24.11986,24.11986,0,0,0-10.31615,10.63941c-1.35059,2.68862-.93157,6.76927,2.15251,8.20914a42.72224,42.72224,0,0,0,35.4226.7184c11.1958-4.84659,21.85988-15.43607,21.33158-28.46036-.461-11.36614-9.07022-20.53968-18.533-25.82333-10.75086-6.00287-23.8864-7.71066-36.03895-6.9521-23.86209,1.48948-51.57058,13.85712-63.88038,35.4271-5.74813,10.07223-5.75039,22.68649,3.09178,30.968,6.90594,6.468,17.48853,9.3636,26.592,6.31429,23.16268-7.75857,22.574-40.69025,7.18537-55.31287-20.32487-19.31313-49.96543-12.08908-71.22325,1.35342-5.05249,3.195-10.28865,6.681-13.01276,12.21193-2.67258,5.42631-1.60907,11.52834,3.09816,15.37031,4.5534,3.71641,11.579,4.46412,17.258,4.63433a49.2835,49.2835,0,0,0,19.32981-3.41854c11.36609-4.46733,23.70733-13.79411,25.371-26.74695,1.71814-13.37706-10.24939-20.64958-22.16273-21.04831-13.753-.4603-29.02609,6.54085-36.303,18.50667-7.36378,12.10865-3.18355,27.02416,11.72518,29.38554,14.4859,2.29442,31.08634-1.23237,44.69364-6.15127a119.68453,119.68453,0,0,0,39.435-23.73819c5.167-4.64645-1.44256-12.688-7.271-9.42346-20.36871,11.40874-18.54222,41.68352-2.16138,55.59741,22.87221,19.42766,52.91193,9.97037,77.57422-.11409l-7.595-5.78567c.47141,11.6928,3.00372,26.92723,17.042,28.89423,13.3491,1.87044,21.31366-11.98476,13.27833-22.78365-7.78885-10.46766-23.71892-16.21921-35.802-19.73959a112.83966,112.83966,0,0,0-87.21194,10.25182c-5.92051,3.37782-1.954,12.742,4.62335,10.9665,11.95974-3.22849,18.56787-14.44568,19.80528-26.2082,1.39166-13.22885-4.60911-25.33356-14.91545-33.46288-11.03831-8.70667-25.45029-12.685-39.29952-13.72038-13.47724-1.00761-28.3501,1.91837-37.08889,13.09055-2.68173,3.42847-2.10413,8.72215,2.6476,10.02831,11.70136,3.21649,24.971-2.05806,30.712-12.96222,2.99417-5.687,2.55945-12.98905-3.5813-16.33364-5.11773-2.7874-11.20267-1.62488-16.20477.74666-20.12423,9.54108-26.10949,37.56262-16.58364,56.43457,10.8616,21.51825,39.383,28.81262,60.64526,19.633,11.46957-4.95178,21.55056-15.37972,21.87607-28.464.32379-13.01512-9.61564-23.27647-20.14436-29.41451-28.38483-16.54782-66.0553-16.93748-95.98165-4.685-5.03033,2.05952-5.70683,7.69739-1.43328,10.9665a69.66708,69.66708,0,0,0,41.20223,14.24686c13.55969.17773,28.98824-3.50442,37.68435-14.72472,8.86025-11.43208,4.85445-26.27219-6.65738-34.06469-6.53794-4.42561-14.78327-5.49864-22.509-5.26746-6.34775.19-14.38351.15107-19.70989,4.12706-6.5078,4.85788-5.4552,13.54351,2.48676,16.08142,6.96367,2.22529,13.75749-1.56294,16.17957-8.23257,1.16779-3.21571-1.34234-6.35021-4.19064-7.38071a49.07683,49.07683,0,0,0-32.67979-.17778c-9.23784,3.25132-20.15279,9.61893-23.68779,19.33636-4.15592,11.42429,5.51559,18.65323,16.15283,17.43274,10.70569-1.22835,22.20188-5.07657,27.148-15.49964,4.72643-9.96009,1.23628-20.88251-8.56463-26.03436-10.04992-5.28274-22.95757-5.561-33.72554-2.60667-10.02779,2.75127-21.24222,9.71542-19.65856,21.67773,1.31459,9.92986,11.20412,16.32137,20.16863,18.6892,24.456,6.45966,51.0874-1.56415,69.41282-18.48411l-10.24264-4.24264c-.19954,26.38016,23.70714,46.46876,46.19852,55.701a92.621,92.621,0,0,0,35.78946,6.93818c10.94038-.09173,25.06461-1.558,34.39711-7.78,4.62372-3.08267,7.67264-8.35327,6.22728-14.00694-1.49043-5.83-7.06861-9.54374-12.15891-12.01249a50.391,50.391,0,0,0-36.286-2.98169c-11.10076,3.35957-24.22592,11.2208-22.74692,24.52218,1.333,11.988,12.53427,22.47467,21.42851,29.65051a96.85977,96.85977,0,0,0,76.84369,20.50106c7.59946-1.2722,4.3763-12.838-3.19008-11.57135a82.61594,82.61594,0,0,1-52.03906-8.888,85.76632,85.76632,0,0,1-21.4577-16.13987c-3.04246-3.15472-6.22683-6.56762-8.216-10.51262-2.60959-5.17544-1.27558-8.67837,3.44913-11.7311a37.74213,37.74213,0,0,1,27.33147-5.3,36.215,36.215,0,0,1,12.24616,4.67818c.593.36561,3.25732,1.79268,3.15532,2.77029-.13294,1.27421-4.27034,2.48644-5.14842,2.7911-17.32031,6.00943-36.53987,5.06095-53.58982-1.37058-18.46711-6.9661-40.39784-23.56411-40.23375-45.25789.04059-5.36658-6.50447-7.69411-10.24264-4.24264a64.10111,64.10111,0,0,1-37.79722,16.90254,57.805,57.805,0,0,1-20.56564-1.67811c-3.88207-1.11073-11.87453-4.6204-10.82842-9.89,1.26954-6.395,13.70922-8.19282,18.74012-8.48377,6.0685-.351,15.42535.06417,19.88322,4.95591,4.71716,5.17626-1.05716,11.99336-5.92482,14.28251a34.56355,34.56355,0,0,1-9.84674,2.64139c-2.62352.3627-6.14194,1.36649-4.53137-2.06354,3.0518-6.49944,12.42982-10.53564,18.9096-12.2155A37.86252,37.86252,0,0,1,382.38828,314.78l-4.19064-7.38071c-.22624.623-1.395-.75-.56277.37094l.60485,4.62335c.59351-1.83487,10.58264-1.723,12.57282-1.78012,5.43949-.15607,11.18063.19266,15.87518,3.23861,9.00658,5.84371,7.20571,15.72229-1.039,21.15826-17.58339,11.59327-43.00467,4.9047-58.49983-6.94852l-1.43328,10.9665a103.935,103.935,0,0,1,62.88667-5.43055c13.10665,3.044,44.58056,13.26463,37.07658,32.63656-6.27663,16.20347-29.57668,18.81437-43.53373,12.64622-14.77279-6.52866-21.57631-22.10516-17.119-37.47422,2.06154-7.10832,7.03543-15.00824,14.49871-17.37422.63256-.20053,1.24606-.30333,1.88756-.45729,3.4248-.822.25741.84444.72588-.0916a14.31507,14.31507,0,0,1-4.06719,4.913,14.824,14.824,0,0,1-13.093,2.53454l2.6476,10.02831c12.70068-16.23729,41.91083-10.334,57.10269-.87009,8.147,5.07522,13.98653,13.0327,13.93589,22.85445-.039,7.55647-3.30013,16.12323-11.21535,18.25992l4.62335,10.9665a100.7753,100.7753,0,0,1,74.14868-10.07388,96.29364,96.29364,0,0,1,17.92059,6.33664c4.93351,2.3469,12.39031,5.31935,15.39879,10.162,2.33921,3.76539-1.28932,4.81511-4.27579,2.89286-4.61409-2.96987-4.365-11.58309-4.55525-16.30213-.14017-3.47666-3.791-7.34114-7.595-5.78567-19.24655,7.87-42.82167,17.61526-62.50254,5.58282-7.061-4.317-12.06471-11.35257-12.61988-19.72866-.5024-7.57981,2.05066-15.53656,8.95629-19.40448l-7.271-9.42346a105.41631,105.41631,0,0,1-50.81977,25.22208,93.67586,93.67586,0,0,1-13.09051,1.52235c-3.79092.17824-9.81173,1.01753-13.20614-1.23126-7.28569-4.82674,3.85949-15.39075,8.02283-18.01594,6.63732-4.18516,17.0276-7.28062,24.5933-3.66692,9.69012,4.62841-1.19664,15.73644-6.33213,19.21722a38.6134,38.6134,0,0,1-24.2776,6.577,27.71686,27.71686,0,0,1-5.85412-.96693c-1.95868-.57333-2.60175-.37115-2.01032-2.10487,1.26638-3.7123,7.99013-6.71637,11.01183-8.5096,15.05321-8.93333,34.65634-14.87037,50.43707-4.10731,11.07931,7.55651,16.637,28.08627,3.50664,36.823-4.78031,3.18075-11.43727,2.10778-15.88453-1.18982-6.52286-4.83665-5.49051-12.46961-1.50366-18.713,9.25338-14.49076,27.33266-23.662,43.72447-26.95612,15.85842-3.187,40.79455-2.10183,49.76727,14.10683,5.09725,9.20786-2.3626,17.78254-10.345,22.04845a30.16013,30.16013,0,0,1-26.57778.83041l2.15251,8.20914c6.45716-12.8543,28.41067-8.91516,37.47386-.81822,7.72947,6.90541-5.88146,17.13244-11.02394,20.82333-7.63844,5.4823-16.48059,10.34833-26.04842,11.002a27.07768,27.07768,0,0,1-22.20676-8.797c-6.22533-7.04008-6.02468-16.56023-1.80766-24.61473,6.85976-13.10211,25.13266-22.75534,39.62342-16.24715,3.67413,1.65015,6.34847,4.13238,3.166,7.49876-3.49151,3.69328-8.144,6.65178-12.44142,9.303a90.36941,90.36941,0,0,1-26.69425,11.05339c-7.82912,1.85273-16.71329,3.38086-24.55886.785-9.89632-3.27434-8.27912-12.05482-3.95053-19.72411a67.40712,67.40712,0,0,1,40.50092-31.896c10.52779-2.848,31.606-1.77385,32.71172,12.92818.67885,9.02626-7.84086,15.13686-14.96909,18.74388-7.8665,3.98059-17.95632,6.88328-26.83171,5.75629-8.98139-1.14045-15.20742-8.27637-13.91651-17.48526,1.25071-8.92212,11.06764-14.39477,19.22346-10.25025V343.22c-11.5209,6.52059-29.31153,15.87634-42.81276,10.60076-5.19923-2.03159-10.21432-7.09018-9.80716-13.03974.35864-5.24054,5.05784-10.40823,10.31184-11.07828,5.6477-.72026,10.52075,4.16594,12.37518,9.0627a15.03769,15.03769,0,0,1-3.41215,15.81222c-7.96,8.40072-23.88955,6.41235-23.05773-7.11879.74373-12.09823,10.17-22.7653,19.33432-29.7684,9.404-7.18627,22.73167-13.429,34.55342-8.6092,11.34008,4.62339,16.693,18.1383,15.139,29.71943-1.73594,12.93684-11.31609,24.48916-23.15107,29.641-12.80624,5.57459-29.63908,3.04132-34.1522-11.83135-1.57942-5.20486-1.485-11.65709,2.40759-15.87393,3.7211-4.03108,10.07633-4.67941,13.61653-.3v-8.48528c-18.88625,14.77592-44.44107,18.67376-66.98837,10.90944-5.50779-1.89664-8.65436,4.483-6.77586,8.814l8.64373,19.92839c3.06495,7.06633,13.40637.96307,10.36165-6.05663Z" transform="translate(-0.49697 34.33094)"/><text class="cls-2" transform="translate(31.82676 816.75379)">Stentthrombose</text></svg>